<svg id="Layer_1" data-name="Layer 1" xmlns="http://www.w3.org/2000/svg" viewBox="0 0 40 40"><defs><style>.cls-1{fill:#3f3c3a;}.cls-2{fill:none;}</style></defs><path class="cls-1" d="M14.17,15v7H9a1,1,0,0,1-1-.92V15.92A1,1,0,0,1,9,15h5.17m2-2H9a3,3,0,0,0-3,2.92v5.16A3,3,0,0,0,9,24h7.17V13Z"/><path class="cls-1" d="M27.82,10A1.22,1.22,0,0,1,29,11.26V25.74A1.22,1.22,0,0,1,27.82,27a1.15,1.15,0,0,1-.41-.08L16,22.55v-8.1l11.41-4.37a1.15,1.15,0,0,1,.41-.08m0-2a3.27,3.27,0,0,0-1.13.21L14,13.07V23.93l12.69,4.86a3.27,3.27,0,0,0,1.13.21A3.22,3.22,0,0,0,31,25.74V11.26A3.22,3.22,0,0,0,27.82,8Z"/><path class="cls-1" d="M30,23.47a1,1,0,0,1-.6-.2,1,1,0,0,1-.4-.8V14.53a1,1,0,0,1,.4-.8,1,1,0,0,1,.87-.16,5.12,5.12,0,0,1,0,9.86A.84.84,0,0,1,30,23.47Zm1-7.26v4.58a3.12,3.12,0,0,0,0-4.58Z"/><path class="cls-1" d="M12.91,24l-1,5.24a1,1,0,0,1-.93.76A.93.93,0,0,1,10,28.87L11,24h1.92m2.44-2h-6L8.06,28.48a2.94,2.94,0,0,0,5.77,1.16L15.35,22Z"/><rect class="cls-2" width="40" height="40"/></svg>