<svg id="Layer_1" data-name="Layer 1" xmlns="http://www.w3.org/2000/svg" viewBox="0 0 40 40"><defs><style>.cls-1{fill:#3f3c3a;}</style></defs><path class="cls-1" d="M25.5,32A3.5,3.5,0,1,1,29,28.5,3.5,3.5,0,0,1,25.5,32Zm0-5A1.5,1.5,0,1,0,27,28.5,1.5,1.5,0,0,0,25.5,27Z"/><path class="cls-1" d="M11.5,32A3.5,3.5,0,1,1,15,28.5,3.5,3.5,0,0,1,11.5,32Zm0-5A1.5,1.5,0,1,0,13,28.5,1.5,1.5,0,0,0,11.5,27Z"/><path class="cls-1" d="M34.8,20.4l-3-4A1,1,0,0,0,31,16H27V13a2,2,0,0,0-2-2H7a2,2,0,0,0-2,2V27a2,2,0,0,0,2,2H8.05A4,4,0,0,1,8,28.5,3.45,3.45,0,0,1,8.35,27H7V13H25V25.05a4,4,0,0,1,.5-.05,3.45,3.45,0,0,1,1.5.35V18h3.5L33,21.33V27H28.65A3.45,3.45,0,0,1,29,28.5,4,4,0,0,1,29,29H34a1,1,0,0,0,1-1V21A1,1,0,0,0,34.8,20.4Z"/><path class="cls-1" d="M15,29h7.1a4,4,0,0,1-.05-.5,3.45,3.45,0,0,1,.35-1.5h-7.7A3.45,3.45,0,0,1,15,28.5,4,4,0,0,1,15,29Z"/><rect class="cls-1" x="9" y="15" width="14" height="1"/><rect class="cls-1" x="9" y="18" width="14" height="1"/><rect class="cls-1" x="9" y="21" width="14" height="1"/></svg>