<svg width="16" height="16" viewBox="0 0 16 16" fill="none" xmlns="http://www.w3.org/2000/svg">
<path fill-rule="evenodd" clip-rule="evenodd" d="M11.8536 2.14645C12.0488 2.34171 12.0488 2.65829 11.8536 2.85355L6.20711 8.5L11.8536 14.1464C12.0488 14.3417 12.0488 14.6583 11.8536 14.8536C11.6583 15.0488 11.3417 15.0488 11.1464 14.8536L5.14645 8.85355C4.95118 8.65829 4.95118 8.34171 5.14645 8.14645L11.1464 2.14645C11.3417 1.95118 11.6583 1.95118 11.8536 2.14645Z" fill="black"/>
<path fill-rule="evenodd" clip-rule="evenodd" d="M11.8536 2.14645C12.0488 2.34171 12.0488 2.65829 11.8536 2.85355L6.20711 8.5L11.8536 14.1464C12.0488 14.3417 12.0488 14.6583 11.8536 14.8536C11.6583 15.0488 11.3417 15.0488 11.1464 14.8536L5.14645 8.85355C4.95118 8.65829 4.95118 8.34171 5.14645 8.14645L11.1464 2.14645C11.3417 1.95118 11.6583 1.95118 11.8536 2.14645Z" stroke="black" stroke-linecap="round" stroke-linejoin="round"/>
</svg>
