<svg width="18" height="16" viewBox="0 0 18 16" fill="none" xmlns="http://www.w3.org/2000/svg">
<path d="M1.00153 3C1.00153 1.89543 1.89696 1 3.00153 1H15.0015C16.1061 1 17.0015 1.89543 17.0015 3V13C17.0015 14.1046 16.1061 15 15.0015 15H3.00153C1.89696 15 1.00153 14.1046 1.00153 13V3ZM2.00153 12V13C2.00153 13.5523 2.44924 14 3.00153 14H15.0015C15.5538 14 16.0015 13.5523 16.0015 13V9.5L12.2251 7.55279C12.0326 7.45654 11.8002 7.49427 11.648 7.64645L7.93782 11.3566L5.27888 9.58397C5.08056 9.45177 4.8165 9.47791 4.64797 9.64645L2.00153 12ZM7.00153 5.5C7.00153 4.67157 6.32995 4 5.50153 4C4.6731 4 4.00153 4.67157 4.00153 5.5C4.00153 6.32843 4.6731 7 5.50153 7C6.32995 7 7.00153 6.32843 7.00153 5.5Z" stroke="black"/>
</svg>
