<svg id="Layer_1" data-name="Layer 1" xmlns="http://www.w3.org/2000/svg" viewBox="0 0 40 40"><defs><style>.cls-1{fill:#3f3c3a;}.cls-2{fill:none;stroke:#3f3c3a;stroke-miterlimit:10;stroke-width:2px;}</style></defs><path class="cls-1" d="M27.7,7.14a1.08,1.08,0,0,1,1.1,1.07V31.79a1.08,1.08,0,0,1-1.1,1.07H12.3a1.08,1.08,0,0,1-1.1-1.07V8.21a1.08,1.08,0,0,1,1.1-1.07H27.7M27.7,5H12.3A3.26,3.26,0,0,0,9,8.21V31.79A3.26,3.26,0,0,0,12.3,35H27.7A3.26,3.26,0,0,0,31,31.79V8.21A3.26,3.26,0,0,0,27.7,5Z"/><path class="cls-2" d="M20,25h0a3,3,0,0,1,3,3v5a0,0,0,0,1,0,0H17a0,0,0,0,1,0,0V28A3,3,0,0,1,20,25Z"/><rect class="cls-1" x="14" y="11" width="2" height="3"/><rect class="cls-1" x="19" y="11" width="2" height="3"/><rect class="cls-1" x="24" y="11" width="2" height="3"/><rect class="cls-1" x="14" y="16" width="2" height="3"/><rect class="cls-1" x="19" y="16" width="2" height="3"/><rect class="cls-1" x="24" y="16" width="2" height="3"/></svg>