<svg id="Layer_1" data-name="Layer 1" xmlns="http://www.w3.org/2000/svg" viewBox="0 0 40 40"><defs><style>.cls-1{fill:#3f3c3a;}</style></defs><path class="cls-1" d="M6,26.69a1,1,0,1,1,0-2,8.86,8.86,0,0,0,8.85-8.84,3,3,0,0,0,0-.31v-.18a1,1,0,0,1,.29-.76l2.13-2.13a.24.24,0,0,0,.06-.25.27.27,0,0,0-.21-.15l-1.9-.1a1,1,0,0,1-.78-1.55l1.22-1.83a.24.24,0,0,0,0-.26.21.21,0,0,0-.24-.09L12.23,9a1,1,0,0,1-.85-.17A8.75,8.75,0,0,0,6,7,1,1,0,0,1,6,5,10.71,10.71,0,0,1,12.2,7l2.69-.67a2.22,2.22,0,0,1,2.39,3.4l-.24.37h.15a2.23,2.23,0,0,1,1.46,3.8l-1.82,1.81a.81.81,0,0,1,0,.16A10.86,10.86,0,0,1,6,26.69Z"/><circle class="cls-1" cx="8.12" cy="10.92" r="1.23"/><path class="cls-1" d="M26,36a1,1,0,0,1-.44-.1,10.93,10.93,0,0,1-6.13-9.77V26l-1.81-1.81a2.24,2.24,0,0,1,1.46-3.81h.15L19,20a2.27,2.27,0,0,1,0-2.53,2.23,2.23,0,0,1,2.37-.87l2.68.67a10.82,10.82,0,0,1,10.31-1.17,1,1,0,0,1,.54,1.31,1,1,0,0,1-1.3.54,8.85,8.85,0,0,0-8.73,1.19,1,1,0,0,1-.85.18l-3.14-.78a.22.22,0,0,0-.25.09.24.24,0,0,0,0,.26l1.22,1.83a1,1,0,0,1-.78,1.55l-1.9.1a.25.25,0,0,0-.21.15.24.24,0,0,0,.06.25l2.13,2.12a1,1,0,0,1,.29.77v.17c0,.11,0,.21,0,.31a8.91,8.91,0,0,0,5,8A1,1,0,0,1,26,36Z"/><circle class="cls-1" cx="28.15" cy="21.23" r="1.23"/><path class="cls-1" d="M15.13,16.55c-4-4-4-7.21-3.94-8.25a1.07,1.07,0,0,0,0-.18.94.94,0,0,0,.58.75.9.9,0,0,0,.93-.12L11.28,7.34A1.1,1.1,0,0,1,12.55,7a1.22,1.22,0,0,1,.64,1.31c0,.92-.07,3.37,3.35,6.8Z"/><path class="cls-1" d="M20.51,26.86l-1-1.72c3.87-2.32,3.66-5.06,3.54-6.53,0-.24,0-.45,0-.61h2a4.05,4.05,0,0,0,0,.45C25.15,20.08,25.45,23.89,20.51,26.86Z"/></svg>