<svg id="Layer_1" data-name="Layer 1" xmlns="http://www.w3.org/2000/svg" viewBox="0 0 40 40"><defs><style>.cls-1{fill:#3f3c3a;}</style></defs><path class="cls-1" d="M27,8a1,1,0,0,1,1,1V31a1,1,0,0,1-1,1H13a1,1,0,0,1-1-1V9a1,1,0,0,1,1-1H27m0-2H13a3,3,0,0,0-3,3V31a3,3,0,0,0,3,3H27a3,3,0,0,0,3-3V9a3,3,0,0,0-3-3Z"/><rect class="cls-1" x="11.5" y="12" width="17" height="1.03"/><rect class="cls-1" x="11.5" y="17" width="17" height="1.03"/><rect class="cls-1" x="11.5" y="21.97" width="17" height="1.03"/><rect class="cls-1" x="11.5" y="26.97" width="17" height="1.03"/><rect class="cls-1" x="12" y="34" width="3" height="1" transform="translate(-21 48) rotate(-90)"/><rect class="cls-1" x="25" y="34" width="3" height="1" transform="translate(-8 61) rotate(-90)"/><path class="cls-1" d="M14,10h0a1,1,0,0,1,1,1v0a0,0,0,0,1,0,0H13a0,0,0,0,1,0,0v0a1,1,0,0,1,1-1Z"/><path class="cls-1" d="M17,10h0a1,1,0,0,1,1,1v0a0,0,0,0,1,0,0H16a0,0,0,0,1,0,0v0A1,1,0,0,1,17,10Z"/><path class="cls-1" d="M14,15h0a1,1,0,0,1,1,1v0a0,0,0,0,1,0,0H13a0,0,0,0,1,0,0v0a1,1,0,0,1,1-1Z"/><path class="cls-1" d="M17,15h0a1,1,0,0,1,1,1v0a0,0,0,0,1,0,0H16a0,0,0,0,1,0,0v0A1,1,0,0,1,17,15Z"/><path class="cls-1" d="M23,15h0a1,1,0,0,1,1,1v0a0,0,0,0,1,0,0H22a0,0,0,0,1,0,0v0a1,1,0,0,1,1-1Z"/><path class="cls-1" d="M26,15h0a1,1,0,0,1,1,1v0a0,0,0,0,1,0,0H25a0,0,0,0,1,0,0v0A1,1,0,0,1,26,15Z"/></svg>