<svg id="Layer_1" data-name="Layer 1" xmlns="http://www.w3.org/2000/svg" viewBox="0 0 40 40"><defs><style>.cls-1{fill:#3f3c3a;}</style></defs><path class="cls-1" d="M27,8a1,1,0,0,1,1,1V31a1,1,0,0,1-1,1H13a1,1,0,0,1-1-1V9a1,1,0,0,1,1-1H27m0-2H13a3,3,0,0,0-3,3V31a3,3,0,0,0,3,3H27a3,3,0,0,0,3-3V9a3,3,0,0,0-3-3Z"/><rect class="cls-1" x="11" y="12" width="17" height="1.03"/><rect class="cls-1" x="11" y="17" width="17" height="1.03"/><rect class="cls-1" x="11" y="21.97" width="17" height="1.03"/><rect class="cls-1" x="11" y="26.97" width="17" height="1.03"/><rect class="cls-1" x="12" y="10" width="3" height="1" transform="translate(24 -3) rotate(90)"/><rect class="cls-1" x="14" y="10" width="3" height="1" transform="translate(26 -5) rotate(90)"/><rect class="cls-1" x="12" y="15" width="3" height="1" transform="translate(29 2) rotate(90)"/><rect class="cls-1" x="14" y="15" width="3" height="1" transform="translate(31 0) rotate(90)"/><rect class="cls-1" x="16" y="15" width="3" height="1" transform="translate(33 -2) rotate(90)"/><rect class="cls-1" x="18" y="15" width="3" height="1" transform="translate(35 -4) rotate(90)"/><rect class="cls-1" x="23" y="15" width="3" height="1" transform="translate(40 -9) rotate(90)"/><rect class="cls-1" x="25" y="15" width="3" height="1" transform="translate(42 -11) rotate(90)"/><rect class="cls-1" x="12" y="25" width="3" height="1" transform="translate(39 12) rotate(90)"/><rect class="cls-1" x="16" y="25" width="3" height="1" transform="translate(43 8) rotate(90)"/><rect class="cls-1" x="18" y="25" width="3" height="1" transform="translate(45 6) rotate(90)"/><rect class="cls-1" x="23" y="25" width="3" height="1" transform="translate(50 1) rotate(90)"/><rect class="cls-1" x="25" y="25" width="3" height="1" transform="translate(52 -1) rotate(90)"/><rect class="cls-1" x="20" y="20" width="3" height="1" transform="translate(42 -1) rotate(90)"/><rect class="cls-1" x="22" y="20" width="3" height="1" transform="translate(44 -3) rotate(90)"/><rect class="cls-1" x="24" y="20" width="3" height="1" transform="translate(46 -5) rotate(90)"/></svg>