<svg id="Layer_1" data-name="Layer 1" xmlns="http://www.w3.org/2000/svg" viewBox="0 0 40 40"><defs><style>.cls-1{fill:#3f3c3a;}</style></defs><path class="cls-1" d="M10.5,15a.5.5,0,0,1-.5-.5v-4a1.5,1.5,0,0,1,3,0,.5.5,0,0,1-1,0,.5.5,0,1,0-1,0v4A.5.5,0,0,1,10.5,15Z"/><path class="cls-1" d="M32,15a1,1,0,0,1,1,1V30a1,1,0,0,1-1,1H8a1,1,0,0,1-1-1V16a1,1,0,0,1,1-1H32m0-2H8a3,3,0,0,0-3,3V30a3,3,0,0,0,3,3H32a3,3,0,0,0,3-3V16a3,3,0,0,0-3-3Z"/><rect class="cls-1" x="8.98" y="22.98" width="15" height="1.03" transform="translate(39.98 7.02) rotate(90)"/><rect class="cls-1" x="26.01" y="21" width="6.99" height="1.02" transform="translate(59.01 43.02) rotate(180)"/><rect class="cls-1" x="19" y="23" width="15" height="1" transform="translate(50 -3) rotate(90)"/><rect class="cls-1" x="12" y="18" width="3" height="1" transform="translate(27 37) rotate(180)"/><rect class="cls-1" x="18" y="18" width="3" height="1"/><rect class="cls-1" x="7" y="33" width="3" height="1" transform="translate(-25 42) rotate(-90)"/><rect class="cls-1" x="30" y="33" width="3" height="1" transform="translate(-2 65) rotate(-90)"/><rect class="cls-1" x="6" y="16" width="27" height="1"/></svg>