<svg id="Layer_1" data-name="Layer 1" xmlns="http://www.w3.org/2000/svg" viewBox="0 0 40 40"><defs><style>.cls-1{fill:#3f3c3a;}</style></defs><path class="cls-1" d="M31,21a1,1,0,0,1,1,1v7a1,1,0,0,1-1,1H9a1,1,0,0,1-1-1V22a1,1,0,0,1,1-1H31m0-2H9a3,3,0,0,0-3,3v7a3,3,0,0,0,3,3H31a3,3,0,0,0,3-3V22a3,3,0,0,0-3-3Z"/><rect class="cls-1" x="7" y="22" width="26" height="1"/><rect class="cls-1" x="10" y="17" width="7" height="1"/><rect class="cls-1" x="23" y="17" width="7" height="1"/><rect class="cls-1" x="12" y="26" width="3" height="1" transform="translate(27 53) rotate(180)"/><path class="cls-1" d="M13.5,25A1.5,1.5,0,1,1,12,26.5,1.5,1.5,0,0,1,13.5,25m0-1A2.5,2.5,0,1,0,16,26.5,2.5,2.5,0,0,0,13.5,24Z"/><rect class="cls-1" x="25" y="26" width="3" height="1" transform="translate(53) rotate(90)"/><path class="cls-1" d="M26.5,25A1.5,1.5,0,1,1,25,26.5,1.5,1.5,0,0,1,26.5,25m0-1A2.5,2.5,0,1,0,29,26.5,2.5,2.5,0,0,0,26.5,24Z"/></svg>