<svg id="Layer_1" data-name="Layer 1" xmlns="http://www.w3.org/2000/svg" viewBox="0 0 40 40"><defs><style>.cls-1{fill:#3f3c3a;}</style></defs><rect class="cls-1" x="11" y="15.5" width="18" height="1" transform="translate(36 -4) rotate(90)"/><path class="cls-1" d="M28,8a1,1,0,0,1,1,1V33a1,1,0,0,1-1,1H12a1,1,0,0,1-1-1V9a1,1,0,0,1,1-1H28m0-2H12A3,3,0,0,0,9,9V33a3,3,0,0,0,3,3H28a3,3,0,0,0,3-3V9a3,3,0,0,0-3-3Z"/><rect class="cls-1" x="21" y="18" width="3" height="1" transform="translate(41 -4) rotate(90)"/><rect class="cls-1" x="16" y="18" width="3" height="1" transform="translate(36 1) rotate(90)"/><rect class="cls-1" x="10" y="24" width="19" height="1"/><rect class="cls-1" x="10" y="29" width="19" height="1"/><rect class="cls-1" x="14" y="31" width="2" height="1" transform="translate(30 63) rotate(180)"/><rect class="cls-1" x="14" y="26" width="2" height="1" transform="translate(30 53) rotate(180)"/><rect class="cls-1" x="24" y="31" width="2" height="1" transform="translate(50 63) rotate(180)"/><rect class="cls-1" x="24" y="26" width="2" height="1" transform="translate(50 53) rotate(180)"/></svg>