<svg id="Layer_1" data-name="Layer 1" xmlns="http://www.w3.org/2000/svg" viewBox="0 0 40 40"><defs><style>.cls-1{fill:#3f3c3a;}</style></defs><path class="cls-1" d="M28,11a1,1,0,0,1,1,1V32a1,1,0,0,1-1,1H12a1,1,0,0,1-1-1V12a1,1,0,0,1,1-1H28m0-2H12a3,3,0,0,0-3,3V32a3,3,0,0,0,3,3H28a3,3,0,0,0,3-3V12a3,3,0,0,0-3-3Z"/><rect class="cls-1" x="10.5" y="15" width="18.5" height="1"/><path class="cls-1" d="M20,19a5,5,0,1,1-5,5,5,5,0,0,1,5-5m0-1a6,6,0,1,0,6,6,6,6,0,0,0-6-6Z"/><rect class="cls-1" x="12" y="13" width="3" height="1"/></svg>