<svg id="Layer_1" data-name="Layer 1" xmlns="http://www.w3.org/2000/svg" viewBox="0 0 40 40"><defs><style>.cls-1{fill:#3f3c3a;}</style></defs><rect class="cls-1" x="6" y="24" width="2" height="4" rx="1"/><path class="cls-1" d="M33,26H6V13a1,1,0,0,1,2,0V24H33a1,1,0,0,1,0,2Z"/><path class="cls-1" d="M28,15a2,2,0,0,1,2,2v8H16V17a2,2,0,0,1,2-2H28m0-1H18a3,3,0,0,0-3,3v9H31V17a3,3,0,0,0-3-3Z"/><path class="cls-1" d="M12.5,15a.5.5,0,0,1,.5.5v1a.5.5,0,0,1-.5.5h-2a.5.5,0,0,1-.5-.5v-1a.5.5,0,0,1,.5-.5h2m0-1h-2A1.5,1.5,0,0,0,9,15.5v1A1.5,1.5,0,0,0,10.5,18h2A1.5,1.5,0,0,0,14,16.5v-1A1.5,1.5,0,0,0,12.5,14Z"/><path class="cls-1" d="M33,28a1,1,0,0,1-1-1V19.73c0-1.06-.66-1.73-1-1.73a1,1,0,0,1,0-2c1.63,0,3,1.71,3,3.73V27A1,1,0,0,1,33,28Z"/><path class="cls-1" d="M15,18H7a1,1,0,0,1,0-2h8a1,1,0,0,1,0,2Z"/></svg>