<svg id="Layer_1" data-name="Layer 1" xmlns="http://www.w3.org/2000/svg" viewBox="0 0 40 40"><defs><style>.cls-1{fill:#3f3c3a;}</style></defs><path class="cls-1" d="M26,7a1,1,0,0,1,1,1V32a1,1,0,0,1-1,1H14a1,1,0,0,1-1-1V8a1,1,0,0,1,1-1H26m0-2H14a3,3,0,0,0-3,3V32a3,3,0,0,0,3,3H26a3,3,0,0,0,3-3V8a3,3,0,0,0-3-3Z"/><rect class="cls-1" x="12" y="16" width="15" height="1.03"/><rect class="cls-1" x="11.98" y="19.98" width="5" height="1.03" transform="translate(34.98 6.02) rotate(90)"/><rect class="cls-1" x="12.97" y="13" width="3" height="1" transform="translate(27.97 -0.97) rotate(90)"/></svg>