<svg id="Layer_1" data-name="Layer 1" xmlns="http://www.w3.org/2000/svg" viewBox="0 0 40 40"><defs><style>.cls-1{fill:#3f3c3a;}</style></defs><path class="cls-1" d="M32,16a1,1,0,0,1,1,1V31a1,1,0,0,1-1,1H8a1,1,0,0,1-1-1V17a1,1,0,0,1,1-1H32m0-2H8a3,3,0,0,0-3,3V31a3,3,0,0,0,3,3H32a3,3,0,0,0,3-3V17a3,3,0,0,0-3-3Z"/><rect class="cls-1" x="28" y="20" width="3" height="1" transform="translate(50 -9) rotate(90)"/><path class="cls-1" d="M29.5,19A1.5,1.5,0,1,1,28,20.5,1.5,1.5,0,0,1,29.5,19m0-1A2.5,2.5,0,1,0,32,20.5,2.5,2.5,0,0,0,29.5,18Z"/><rect class="cls-1" x="28" y="26" width="3" height="1" transform="translate(59 53) rotate(180)"/><path class="cls-1" d="M29.5,25A1.5,1.5,0,1,1,28,26.5,1.5,1.5,0,0,1,29.5,25m0-1A2.5,2.5,0,1,0,32,26.5,2.5,2.5,0,0,0,29.5,24Z"/><path class="cls-1" d="M24,19V29H10V19H24m0-1H10a1,1,0,0,0-1,1V29a1,1,0,0,0,1,1H24a1,1,0,0,0,1-1V19a1,1,0,0,0-1-1Z"/><rect class="cls-1" x="21.5" y="22.5" width="6" height="3" rx="0.5" transform="translate(48.5 -0.5) rotate(90)"/></svg>