<svg id="Layer_1" data-name="Layer 1" xmlns="http://www.w3.org/2000/svg" viewBox="0 0 40 40"><defs><style>.cls-1{fill:#3f3c3a;}</style></defs><path class="cls-1" d="M32,12a1,1,0,0,1,1,1V27a1,1,0,0,1-1,1H8a1,1,0,0,1-1-1V13a1,1,0,0,1,1-1H32m0-2H8a3,3,0,0,0-3,3V27a3,3,0,0,0,3,3H32a3,3,0,0,0,3-3V13a3,3,0,0,0-3-3Z"/><polygon class="cls-1" points="21 30 19 30 19 34 21 34 21 30 21 30"/><path class="cls-1" d="M27,32H13a1,1,0,0,0,0,2H27a1,1,0,0,0,0-2Z"/><rect class="cls-1" x="6" y="26" width="27" height="1"/></svg>