<?xml version="1.0" encoding="utf-8"?>
<!-- Generator: Adobe Illustrator 27.0.0, SVG Export Plug-In . SVG Version: 6.00 Build 0)  -->
<svg version="1.1" id="Layer_1" xmlns="http://www.w3.org/2000/svg" xmlns:xlink="http://www.w3.org/1999/xlink" x="0px" y="0px"
	 viewBox="0 0 24 24" style="enable-background:new 0 0 24 24;" xml:space="preserve">
<style type="text/css">
	.st0{fill:#BDBBB9;}
	.st1{fill:none;}
	.st2{fill:#7DE1FF;}
</style>
<path id="_Color" class="st0" d="M12.3,16.8l3.3,2.1c0.3,0.2,0.7,0.1,0.8-0.2c0.1-0.1,0.1-0.3,0.1-0.4l-0.9-4c0-0.2,0-0.4,0.2-0.6
	l3-2.8c0.2-0.2,0.2-0.6,0-0.8c-0.1-0.1-0.2-0.1-0.3-0.2l-3.9-0.4c-0.2,0-0.4-0.2-0.5-0.4l-1.5-3.7c-0.1-0.3-0.5-0.5-0.8-0.3
	c-0.2,0.1-0.3,0.2-0.3,0.3L9.9,9.1C9.8,9.3,9.7,9.5,9.4,9.5L5.5,9.9C5.2,9.9,5,10.2,5,10.5c0,0.1,0.1,0.2,0.2,0.3l3,2.8
	c0.2,0.1,0.2,0.4,0.2,0.6l-0.9,4c-0.1,0.3,0.1,0.7,0.5,0.7c0.2,0,0.3,0,0.4-0.1l3.3-2.1C11.9,16.6,12.1,16.6,12.3,16.8z"/>
<path class="st1" d="M-5.9,38.9c-0.2-0.1-0.2-0.3-0.2-0.5l2.3-10.2l-7.5-6.9c-0.2-0.2-0.2-0.5,0-0.7c0.1-0.1,0.2-0.1,0.3-0.2
	l9.9-0.9l3.9-9.6c0.1-0.3,0.4-0.4,0.7-0.3c0.1,0.1,0.2,0.2,0.3,0.3l3.9,9.6l9.9,0.9c0.3,0,0.5,0.3,0.5,0.5c0,0.1-0.1,0.2-0.2,0.3
	l-7.5,6.9l2.3,10.2c0.1,0.3-0.1,0.5-0.4,0.6c-0.1,0-0.3,0-0.4-0.1l-8.5-5.4l-8.5,5.4C-5.5,39-5.7,39-5.9,38.9L-5.9,38.9z"/>
<path class="st2" d="M12,5c-0.1,0-0.1,0-0.2,0c-0.2,0.1-0.3,0.2-0.3,0.3L9.9,9.1C9.8,9.3,9.7,9.5,9.4,9.5L5.5,9.8
	C5.2,9.9,5,10.2,5,10.5c0,0.1,0.1,0.2,0.2,0.3l3,2.8c0.2,0.1,0.2,0.4,0.2,0.6l-0.9,4c-0.1,0.3,0.1,0.7,0.5,0.7c0.2,0,0.3,0,0.4-0.1
	l3.3-2.1c0.1-0.1,0.2-0.1,0.3-0.1V5z"/>
</svg>
