<svg id="Layer_1" data-name="Layer 1" xmlns="http://www.w3.org/2000/svg" viewBox="0 0 24 24"><defs><style>.cls-1{fill:#a9a7a2;}.cls-2{fill:none;}</style></defs><path class="cls-1" d="M12,3.5A8.5,8.5,0,1,1,3.5,12,8.51,8.51,0,0,1,12,3.5M12,2A10,10,0,1,0,22,12,10,10,0,0,0,12,2Z"/><path class="cls-1" d="M16,12.75H8a.75.75,0,0,1,0-1.5h8a.75.75,0,0,1,0,1.5Z"/><path class="cls-1" d="M12,16.75a.76.76,0,0,1-.75-.75V8a.75.75,0,0,1,1.5,0v8A.76.76,0,0,1,12,16.75Z"/><rect class="cls-2" width="24" height="24"/></svg>