<svg id="Layer_1" data-name="Layer 1" xmlns="http://www.w3.org/2000/svg" viewBox="0 0 24 24"><defs><style>.cls-1{fill:#a9a7a2;}.cls-2{fill:none;}</style></defs><path class="cls-1" d="M12,3.5a1.44,1.44,0,0,1,.84.28l6.57,4.75a2.7,2.7,0,0,1,1.09,2.18v7.15A2.57,2.57,0,0,1,18,20.5H6a2.57,2.57,0,0,1-2.5-2.64V10.71A2.7,2.7,0,0,1,4.59,8.53l6.57-4.75A1.44,1.44,0,0,1,12,3.5m0,15A4.5,4.5,0,1,0,7.5,14,4.51,4.51,0,0,0,12,18.5M12,2a3,3,0,0,0-1.72.56L3.71,7.32A4.18,4.18,0,0,0,2,10.71v7.15A4.07,4.07,0,0,0,6,22H18a4.07,4.07,0,0,0,4-4.14V10.71a4.18,4.18,0,0,0-1.71-3.39L13.72,2.56A3,3,0,0,0,12,2Zm0,15a3,3,0,1,1,3-3,3,3,0,0,1-3,3Z"/><rect class="cls-2" width="24" height="24"/></svg>