<svg id="Layer_1" data-name="Layer 1" xmlns="http://www.w3.org/2000/svg" viewBox="0 0 24 24"><defs><style>.cls-1{fill:#3f3c3a;}.cls-2{fill:none;}</style></defs><path class="cls-1" d="M12,4.5A7.5,7.5,0,1,1,4.5,12,7.5,7.5,0,0,1,12,4.5M12,2A10,10,0,1,0,22,12,10,10,0,0,0,12,2Z"/><path class="cls-1" d="M16,13.25H8a1.25,1.25,0,0,1,0-2.5h8a1.25,1.25,0,0,1,0,2.5Z"/><path class="cls-1" d="M12,17.25A1.25,1.25,0,0,1,10.75,16V8a1.25,1.25,0,0,1,2.5,0v8A1.25,1.25,0,0,1,12,17.25Z"/><rect class="cls-2" width="24" height="24"/></svg>