<svg id="Layer_1" data-name="Layer 1" xmlns="http://www.w3.org/2000/svg" viewBox="0 0 24 24"><defs><style>.cls-1{fill:#a9a7a2;}.cls-2{fill:none;}</style></defs><path class="cls-1" d="M12,4.5c4.69,0,8.5,2.92,8.5,6.5s-3.81,6.5-8.5,6.5a10.91,10.91,0,0,1-2.55-.3l-.57-.14-.52.29-1,.6.06-.25.27-1.06-.94-.58A6.08,6.08,0,0,1,3.5,11c0-3.58,3.81-6.5,8.5-6.5M12,3C6.48,3,2,6.58,2,11a7.57,7.57,0,0,0,3.92,6.34L5.4,19.41a.7.7,0,0,0,.68.87.72.72,0,0,0,.34-.09L9.1,18.66A12.45,12.45,0,0,0,12,19c5.52,0,10-3.58,10-8S17.52,3,12,3Z"/><rect class="cls-2" width="24" height="24"/></svg>