<svg id="Layer_1" data-name="Layer 1" xmlns="http://www.w3.org/2000/svg" viewBox="0 0 40 40"><defs><style>.cls-1{fill:#3f3c3a;}</style></defs><rect class="cls-1" x="14" y="12" width="12" height="2" transform="translate(40 26) rotate(180)"/><rect class="cls-1" x="14" y="17" width="12" height="2" transform="translate(40 36) rotate(180)"/><rect class="cls-1" x="10" y="28" width="19" height="2"/><path class="cls-1" d="M35,10l1.42,1.41L25.12,22.73,23,23.44l.71-2.13L35,10m0-2a2,2,0,0,0-1.41.59L22.29,19.9a2,2,0,0,0-.48.78L21.1,22.8A2,2,0,0,0,23,25.44a1.94,1.94,0,0,0,.63-.11l2.12-.7a2,2,0,0,0,.79-.49L37.85,12.83a2,2,0,0,0,.59-1.42A2,2,0,0,0,37.85,10L36.43,8.59A2,2,0,0,0,35,8Z"/><path class="cls-1" d="M29,20.25V32a1,1,0,0,1-1,1H12a1,1,0,0,1-1-1V8a1,1,0,0,1,1-1H28a1,1,0,0,1,1,1v7l2-2V8a3,3,0,0,0-3-3H12A3,3,0,0,0,9,8V32a3,3,0,0,0,3,3H28a3,3,0,0,0,3-3V18.75Z"/></svg>